<?xml version="1.0" encoding="UTF-8" standalone="no"?>
<svg
   id="Layer_1"
   data-name="Layer 1"
   width="459.80011"
   height="155.29654"
   viewBox="0 0 459.80011 155.29654"
   version="1.1"
   sodipodi:docname="logo.svg"
   inkscape:version="1.4.4 (dcaf3e7d9e, 2026-05-05)"
   xmlns:inkscape="http://www.inkscape.org/namespaces/inkscape"
   xmlns:sodipodi="http://sodipodi.sourceforge.net/DTD/sodipodi-0.dtd"
   xmlns:xlink="http://www.w3.org/1999/xlink"
   xmlns="http://www.w3.org/2000/svg"
   xmlns:svg="http://www.w3.org/2000/svg">
  <sodipodi:namedview
     id="namedview4"
     pagecolor="#ffffff"
     bordercolor="#000000"
     borderopacity="0.25"
     inkscape:showpageshadow="2"
     inkscape:pageopacity="0.0"
     inkscape:pagecheckerboard="0"
     inkscape:deskcolor="#d1d1d1"
     inkscape:zoom="2.7355346"
     inkscape:cx="198.49868"
     inkscape:cy="86.820324"
     inkscape:window-width="1920"
     inkscape:window-height="1143"
     inkscape:window-x="0"
     inkscape:window-y="0"
     inkscape:window-maximized="0"
     inkscape:current-layer="Layer_1" />
  <defs
     id="defs1">
    <style
       id="style1">
      .cls-1 {
        fill: #fca326;
      }

      .cls-2 {
        fill: #fc6d26;
      }

      .cls-3 {
        fill: #e24329;
      }
    </style>
    <linearGradient
       gradientUnits="userSpaceOnUse"
       id="linear-gradient-2554fbbc168494bd92c970521b88236e"
       x1="-320"
       x2="128"
       y1="-554.25629"
       y2="221.7025">
      <stop
         offset="0%"
         stop-color="#3e5993"
         id="stop1" />
      <stop
         offset="25%"
         stop-color="#4564a5"
         id="stop2" />
      <stop
         offset="100%"
         stop-color="#4d6fb7"
         id="stop3" />
    </linearGradient>
    <linearGradient
       gradientUnits="userSpaceOnUse"
       id="linear-gradient-f683afeaafe0676dd2d738a2ab63a1d7"
       x1="-320"
       x2="128"
       y1="-554.25629"
       y2="221.7025">
      <stop
         offset="0%"
         stop-color="#6d9bbc"
         id="stop4" />
      <stop
         offset="25%"
         stop-color="#72a9cf"
         id="stop5" />
      <stop
         offset="100%"
         stop-color="#77b6e1"
         id="stop6" />
    </linearGradient>
    <linearGradient
       inkscape:collect="always"
       xlink:href="#linear-gradient-2554fbbc168494bd92c970521b88236e"
       id="linearGradient19"
       gradientUnits="userSpaceOnUse"
       x1="-320"
       y1="-554.25629"
       x2="128"
       y2="221.7025"
       gradientTransform="matrix(12.848469,0,0,12.848469,31891.037,44024.686)" />
    <linearGradient
       inkscape:collect="always"
       xlink:href="#linear-gradient-f683afeaafe0676dd2d738a2ab63a1d7"
       id="linearGradient20"
       gradientUnits="userSpaceOnUse"
       x1="-320"
       y1="-554.25629"
       x2="128"
       y2="221.7025"
       gradientTransform="matrix(12.848469,0,0,12.848469,46489.002,-5606.112)" />
    <linearGradient
       inkscape:collect="always"
       xlink:href="#linear-gradient-2554fbbc168494bd92c970521b88236e"
       id="linearGradient21"
       gradientUnits="userSpaceOnUse"
       x1="-320"
       y1="-554.25629"
       x2="128"
       y2="221.7025"
       gradientTransform="matrix(12.848469,0,0,12.848469,10806.448,-43063.705)" />
    <linearGradient
       inkscape:collect="always"
       xlink:href="#linear-gradient-f683afeaafe0676dd2d738a2ab63a1d7"
       id="linearGradient22"
       gradientUnits="userSpaceOnUse"
       x1="-320"
       y1="-554.25629"
       x2="128"
       y2="221.7025"
       gradientTransform="matrix(12.848469,0,0,12.848469,-39474.057,-30890.509)" />
    <linearGradient
       inkscape:collect="always"
       xlink:href="#linear-gradient-2554fbbc168494bd92c970521b88236e"
       id="linearGradient23"
       gradientUnits="userSpaceOnUse"
       x1="-320"
       y1="-554.25629"
       x2="128"
       y2="221.7025"
       gradientTransform="matrix(12.848469,0,0,12.848469,-54072.02,18740.286)" />
    <linearGradient
       inkscape:collect="always"
       xlink:href="#linear-gradient-f683afeaafe0676dd2d738a2ab63a1d7"
       id="linearGradient24"
       gradientUnits="userSpaceOnUse"
       x1="-320"
       y1="-554.25629"
       x2="128"
       y2="221.7025"
       gradientTransform="matrix(12.848469,0,0,12.848469,-18389.469,56197.879)" />
  </defs>
  <path
     class="cls-1"
     d="m 513.91428,52.81769 1.4717,1.11405 0.8956,0.67715 c 0.2157,0.16338 0.514,0.16338 0.7298,0 l 0.8956,-0.67715 1.4714,-1.11405 c 0,0 -1.2714,-0.96005 -2.7319,-2.06442 -1.4608,1.10437 -2.7322,2.06442 -2.7322,2.06442 z"
     id="path3"
     style="stroke-width:1" />
  <g
     id="g5"
     transform="translate(-112.13101,-114.50862)">
    <path
       class="cls-3"
       d="m 265.26416,174.37243 -0.2134,-0.55822 -21.19899,-55.30908 c -0.4236,-1.08359 -1.18542,-1.99642 -2.17699,-2.62689 -0.98837,-0.63373 -2.14749,-0.93253 -3.32305,-0.87014 -1.1689,0.0624 -2.29195,0.48925 -3.20809,1.21821 -0.90957,0.73554 -1.56629,1.73047 -1.87493,2.85346 l -14.31327,43.80662 h -57.90965 l -14.31327,-43.80662 c -0.30864,-1.12299 -0.96536,-2.11791 -1.87493,-2.85346 -0.91614,-0.72895 -2.03911,-1.15582 -3.20809,-1.21821 -1.17548,-0.0624 -2.33468,0.23641 -3.32297,0.87014 -0.99166,0.63047 -1.75348,1.5433 -2.17707,2.62689 l -21.19891,55.31237 -0.21348,0.55493 c -6.28158,16.38521 -0.92929,34.90803 13.05891,45.48782 0.0262,0.0164 0.0492,0.0361 0.0755,0.0558 l 0.18719,0.14119 32.29094,24.17392 15.97151,12.09024 9.71951,7.34871 c 2.34117,1.77316 5.57877,1.77316 7.92002,0 l 9.71943,-7.34871 15.96822,-12.09024 32.48142,-24.31511 c 0.0296,-0.023 0.0559,-0.0427 0.0854,-0.0657 13.97834,-10.57977 19.32735,-29.09604 13.04905,-45.47796 z"
       id="path1" />
    <path
       class="cls-2"
       d="m 265.26416,174.37243 -0.2134,-0.55822 c -10.5174,2.16062 -20.20405,6.6099 -28.49844,12.81593 -0.1346,0.0985 -25.20497,19.05805 -46.55171,35.19699 15.84998,11.98517 29.6477,22.40405 29.6477,22.40405 l 32.48142,-24.31511 c 0.0296,-0.023 0.0559,-0.0427 0.0854,-0.0657 13.97834,-10.57977 19.32735,-29.09604 13.04905,-45.47796 z"
       id="path2" />
    <path
       class="cls-2"
       d="M 143.44561,186.63014 C 135.1545,180.4274 125.47115,175.97483 114.95054,173.8175 l -0.21348,0.55493 c -6.28158,16.38521 -0.92929,34.90803 13.05891,45.48782 0.0262,0.0164 0.0492,0.0361 0.0755,0.0558 l 0.18719,0.14119 32.29094,24.17392 c 0,0 13.79772,-10.41888 29.65099,-22.40405 -21.34673,-16.13894 -46.42031,-35.09848 -46.55499,-35.19699 z"
       id="path4" />
  </g>
  <g
     id="g4"
     transform="matrix(0.84465142,0,0,0.84465142,215.16557,-157.63741)"
     style="stroke-width:1.18392">
    <polygon
       fill="url(#linear-gradient-2554fbbc168494bd92c970521b88236e)"
       points="-176,-526.54345 384,443.40501 128,443.40501 -4.0726089e-14,221.7025 -128,443.40501 -256,443.40501 -320,332.55376 -128,0 -304,-304.84094 "
       transform="matrix(0.09214486,0,0,0.09214486,153.99054,329.63137)"
       id="polygon6"
       style="fill:url(#linearGradient19);stroke-width:12.8485" />
    <polygon
       fill="url(#linear-gradient-f683afeaafe0676dd2d738a2ab63a1d7)"
       points="-176,-526.54345 384,443.40501 128,443.40501 -4.0726089e-14,221.7025 -128,443.40501 -256,443.40501 -320,332.55376 -128,0 -304,-304.84094 "
       transform="matrix(0.04607243,0.07979979,-0.07979979,0.04607243,124.50424,278.5595)"
       id="polygon7"
       style="fill:url(#linearGradient20);stroke-width:12.8485" />
    <polygon
       fill="url(#linear-gradient-2554fbbc168494bd92c970521b88236e)"
       points="-176,-526.54345 384,443.40501 128,443.40501 -4.0726089e-14,221.7025 -128,443.40501 -256,443.40501 -320,332.55376 -128,0 -304,-304.84094 "
       transform="matrix(-0.04607243,0.07979979,-0.07979979,-0.04607243,153.99054,227.48763)"
       id="polygon8"
       style="fill:url(#linearGradient21);stroke-width:12.8485" />
    <polygon
       fill="url(#linear-gradient-f683afeaafe0676dd2d738a2ab63a1d7)"
       points="-176,-526.54345 384,443.40501 128,443.40501 -4.0726089e-14,221.7025 -128,443.40501 -256,443.40501 -320,332.55376 -128,0 -304,-304.84094 "
       transform="matrix(-0.09214486,0,0,-0.09214486,212.96324,227.48763)"
       id="polygon9"
       style="fill:url(#linearGradient22);stroke-width:12.8485" />
    <polygon
       fill="url(#linear-gradient-2554fbbc168494bd92c970521b88236e)"
       points="-176,-526.54345 384,443.40501 128,443.40501 -4.0726089e-14,221.7025 -128,443.40501 -256,443.40501 -320,332.55376 -128,0 -304,-304.84094 "
       transform="matrix(-0.04607243,-0.07979979,0.07979979,-0.04607243,242.44964,278.55949)"
       id="polygon10"
       style="fill:url(#linearGradient23);stroke-width:12.8485" />
    <polygon
       fill="url(#linear-gradient-f683afeaafe0676dd2d738a2ab63a1d7)"
       points="-176,-526.54345 384,443.40501 128,443.40501 -4.0726089e-14,221.7025 -128,443.40501 -256,443.40501 -320,332.55376 -128,0 -304,-304.84094 "
       transform="matrix(0.04607243,-0.07979979,0.07979979,0.04607243,212.96324,329.63136)"
       id="polygon11"
       style="fill:url(#linearGradient24);stroke-width:12.8485" />
  </g>
  <path
     d="m 215.1415,41.59861 q 5.17916,0 8.82376,1.8223 3.7405,1.72639 5.75462,4.98734 2.01412,3.26095 2.01412,7.96056 0,6.04236 -3.93233,10.26242 -3.83641,4.22005 -9.78286,7.67283 l 18.51071,17.83933 q 2.49367,-2.97322 4.02824,-6.80964 1.63047,-3.93232 2.68549,-8.44011 h 8.53603 q -1.53457,6.13826 -3.83642,11.41334 -2.30185,5.27507 -5.94645,9.2074 l 14.00292,13.61927 H 244.586 l -8.34421,-8.05647 q -2.97322,2.68549 -6.426,4.69961 -3.45277,2.01412 -7.67283,3.16504 -4.12415,1.15093 -9.49513,1.15093 -6.61782,0 -11.50925,-2.11003 -4.79552,-2.20594 -7.48101,-6.426 -2.58958,-4.22006 -2.58958,-10.26241 0,-4.89143 1.72639,-8.44012 1.8223,-3.54868 5.17916,-6.33008 3.35686,-2.78141 7.86465,-5.37099 -2.01412,-2.30185 -3.93232,-4.79552 -1.91821,-2.49367 -3.16505,-5.37098 -1.24683,-2.97322 -1.24683,-6.426 0,-4.69961 2.11003,-8.05647 2.11003,-3.35686 6.04235,-5.08325 4.02824,-1.8223 9.49513,-1.8223 z m -4.22006,36.8296 q -3.45277,2.01411 -5.94644,4.12414 -2.39776,2.01412 -3.74051,4.50779 -1.34274,2.49367 -1.34274,5.94645 0,5.27507 3.54868,8.44011 3.54869,3.16504 9.49513,3.16504 6.13827,0 10.55015,-2.01411 4.41188,-2.01412 7.3851,-4.79552 z m 3.93233,-29.92405 q -4.02824,0 -6.61782,2.11003 -2.49367,2.11003 -2.49367,5.85053 0,3.45278 1.8223,6.426 1.8223,2.87731 5.27507,6.426 5.65872,-3.26096 8.05648,-6.13827 2.49367,-2.97322 2.49367,-6.80964 0,-3.45277 -2.30185,-5.65871 -2.30185,-2.20594 -6.23418,-2.20594 z"
     id="text5"
     style="font-size:95.9104px;font-family:Robo;-inkscape-font-specification:Robo;text-align:center;text-anchor:middle;stroke-width:1.00157;stroke-linecap:round;stroke-dasharray:none;fill:#4d6fb7;stroke:#6d9bbc;fill-opacity:1;stroke-opacity:1"
     aria-label="&amp;" />
</svg>
